HIERARCHY
ROOT Hips
{
  OFFSET -35.2597 29.1586 114.425
  CHANNELS 6 Xposition Yposition Zposition Zrotation Xrotation Yrotation
  JOINT LeftUpLeg
  {
    OFFSET 8.64259 1.95398 -2.38835
    CHANNELS 3 Zrotation Xrotation Yrotation
    JOINT LeftLeg
    {
      OFFSET 43.7702 0 0
      CHANNELS 3 Zrotation Xrotation Yrotation
      JOINT LeftFoot
      {
        OFFSET 40.6238 0 0
        CHANNELS 3 Zrotation Xrotation Yrotation
        JOINT LeftToeBase
        {
          OFFSET 12.7242 0 0
          CHANNELS 3 Zrotation Xrotation Yrotation
          End Site
          {
            OFFSET 0 0 0
          }
        }
      }
    }
  }
  JOINT RightUpLeg
  {
    OFFSET -8.2249 1.95398 -2.59336
    CHANNELS 3 Zrotation Xrotation Yrotation
    JOINT RightLeg
    {
      OFFSET 43.5653 0 0
      CHANNELS 3 Zrotation Xrotation Yrotation
      JOINT RightFoot
      {
        OFFSET 40.6238 0 0
        CHANNELS 3 Zrotation Xrotation Yrotation
        JOINT RightToeBase
        {
          OFFSET 12.7242 0 0
          CHANNELS 3 Zrotation Xrotation Yrotation
          End Site
          {
            OFFSET 0 0 0
          }
        }
      }
    }
  }
  JOINT Spine
  {
    OFFSET 0.165834 0.87714 6.61349
    CHANNELS 3 Zrotation Xrotation Yrotation
    JOINT Spine1
    {
      OFFSET 7.38963 1.71661e-005 0
      CHANNELS 3 Zrotation Xrotation Yrotation
      JOINT Spine2
      {
        OFFSET 11.9445 1.14441e-005 0
        CHANNELS 3 Zrotation Xrotation Yrotation
        JOINT Spine3
        {
          OFFSET 14.7254 4.19617e-005 0
          CHANNELS 3 Zrotation Xrotation Yrotation
          JOINT Spine4
          {
            OFFSET 10.9679 0 0
            CHANNELS 3 Zrotation Xrotation Yrotation
            JOINT RightShoulder
            {
              OFFSET 2.46616 -1.6653 3.69651
              CHANNELS 3 Zrotation Xrotation Yrotation
              JOINT RightArm
              {
                OFFSET 13.0012 0 0
                CHANNELS 3 Zrotation Xrotation Yrotation
                JOINT RightForeArm
                {
                  OFFSET 28.7848 1.62311e-005 0
                  CHANNELS 3 Zrotation Xrotation Yrotation
                  JOINT RightHand
                  {
                    OFFSET 26.5688 1.62095e-005 0
                    CHANNELS 3 Zrotation Xrotation Yrotation
                    End Site
                    {
                      OFFSET 0 0 0
                    }
                  }
                }
              }
            }
            JOINT LeftShoulder
            {
              OFFSET 2.38034 -1.29275 -3.7523
              CHANNELS 3 Zrotation Xrotation Yrotation
              JOINT LeftArm
              {
                OFFSET 16.3182 6.07031e-005 0
                CHANNELS 3 Zrotation Xrotation Yrotation
                JOINT LeftForeArm
                {
                  OFFSET 27.0901 0 0
                  CHANNELS 3 Zrotation Xrotation Yrotation
                  JOINT LeftHand
                  {
                    OFFSET 24.5451 1.51738e-005 0
                    CHANNELS 3 Zrotation Xrotation Yrotation
                    End Site
                    {
                      OFFSET 0 0 0
                    }
                  }
                }
              }
            }
            JOINT Neck
            {
              OFFSET 5.0226 -0.0266342 0
              CHANNELS 3 Zrotation Xrotation Yrotation
              JOINT Head
              {
                OFFSET 6.69364 2.86102e-005 0
                CHANNELS 3 Zrotation Xrotation Yrotation
                End Site
                {
                  OFFSET 0 0 0
                }
              }
            }
          }
        }
      }
    }
  }
}
MOTION
Frames:	15
Frame Time:	0.0416667
-79.3688 96.5878 -80.2246 101.033 -69.2649 98.8982 -172.759 11.5125 90.8632 -36.3885 30.1328 -1.65294 77.0759 13.0916 2.31347 22.8654 -1.20704 -3.23169 165.129 0.854214 82.9916 -40.8955 9.25611 3.42211 79.2115 -12.0967 -0.737641 30.8258 -1.63939 2.85506 1.13534 8.10137 -90.2661 10.6787 2.13853 -0.724464 -0.990703 2.10459 -0.817926 -23.54 2.25735 -0.047937 -3.52731 2.25735 -0.0479396 86.6802 -34.1306 -111.426 34.4756 8.7297 15.2152 -40.4778 -34.0363 -56.0847 -30.8208 12.3421 -48.7695 -86.7597 -57.6028 84.7226 -21.1455 10.5792 30.3933 -130.978 15.3909 -77.7161 -17.7584 -3.25387 18.7696 15.4661 31.1305 5.52762 -1.42523 28.7926 5.21468 
-79.5123 97.5897 -79.2805 98.6507 -65.3314 97.0407 -173.546 10.1321 91.5902 -33.019 33.9845 -0.792438 75.0131 11.6603 2.56206 23.7191 -1.22327 -2.44497 164.523 1.01598 83.1363 -39.3772 9.09605 4.51067 78.1399 -11.5154 -1.07 30.681 -1.84909 3.84733 0.958422 8.02277 -90.4049 10.8364 1.72141 -0.965504 -0.833873 1.67725 -1.04034 -23.3774 1.93199 -0.403363 -3.36477 1.93196 -0.403365 86.7023 -34.5651 -111.202 35.0624 10.4182 -3.51142 -14.9482 -56.0372 -16.4191 -32.7096 12.4252 -46.7755 -86.8174 -56.3671 84.4674 -19.97 11.3735 21.3632 -131.957 13.7558 -78.6193 -20.9435 -3.7729 17.9793 13.6202 32.8755 6.36697 -0.618393 30.4703 5.68533 
-80.0262 98.5214 -78.3465 96.8026 -62.5402 95.5535 -174.101 8.62795 92.1957 -28.9385 37.301 -0.0481706 72.9242 10.4421 3.68459 23.1199 -0.67939 -3.98172 164.641 0.704134 83.2764 -35.928 12.2185 5.17775 77.6666 -10.6055 0.691063 29.9163 -1.5416 3.7855 0.883255 7.9073 -90.439 11.0663 1.55473 -1.02354 -0.604211 1.50818 -1.09098 -23.1458 1.79042 -0.508867 -3.13313 1.79045 -0.50886 86.6878 -35.3398 -110.909 34.8631 11.4673 -1.60633 -6.96059 -59.2615 -6.65431 -29.7155 9.27785 -39.9115 -86.52 -54.7863 84.6627 -18.7252 11.9249 14.7153 -133.909 12.7725 -78.5955 -22.3543 -3.9748 17.4223 14.1937 34.1307 6.00374 -1.59284 31.7182 5.87853 
-80.6766 99.1048 -77.2671 96.0058 -60.5086 94.8773 -174.238 7.27931 92.9401 -26.1004 39.4262 0.475596 71.3243 9.12564 3.26233 24.7803 -0.435931 -2.9759 164.762 -0.0372545 83.3166 -31.5663 11.2457 5.33634 75.6966 -10.1985 -1.89107 31.1925 -1.48939 1.76203 0.901259 7.84926 -90.4951 11.1831 1.56366 -1.13909 -0.487458 1.51204 -1.20681 -23.0287 1.8337 -0.616388 -3.01603 1.83371 -0.616381 87.3973 -34.714 -109.871 35.3914 12.2299 4.68408 -6.28577 -53.7093 -6.12172 -23.2818 6.29318 -35.8981 -86.4422 -53.5408 84.5964 -18.0105 12.593 7.36062 -133.825 11.0744 -80.1981 -25.6855 -4.20177 15.3779 14.472 34.9877 6.62922 -2.14977 32.3842 5.75235 
-81.6408 99.2099 -76.2472 94.9912 -58.8607 93.5323 -174.229 6.96 93.4731 -24.7376 40.2567 0.729243 70.9367 8.50267 1.77146 25.5886 -0.392631 -2.3118 164.949 -0.122729 82.9932 -28.754 11.9431 4.87089 75.3372 -10.1848 -1.10555 31.6828 -1.94475 2.7482 0.86729 7.79547 -90.4447 11.2899 1.51889 -1.03657 -0.380648 1.47179 -1.10243 -22.9218 1.76018 -0.532074 -2.90915 1.76017 -0.532078 88.0401 -34.1287 -108.91 36.347 12.7376 9.80256 -5.93966 -50.17 -5.86754 -19.8434 4.53445 -31.5983 -86.3139 -53.4517 84.7697 -17.7864 12.5795 0.444884 -132.327 9.03576 -82.5525 -27.2037 -3.77394 12.2515 14.2865 35.4389 6.77578 -2.47612 32.8009 6.01469 
-83.0791 99.0715 -75.0476 94.5032 -57.6371 92.5272 -174.184 6.60299 93.9472 -23.6542 43.1609 1.06513 70.1722 8.57328 4.35591 28.0038 0.901477 -2.64865 165.239 -0.29117 83.0637 -26.9591 11.1914 4.31667 73.9446 -9.69198 -1.22373 32.2081 -2.14109 2.72004 0.845275 7.82314 -90.4019 11.2337 1.49538 -0.94762 -0.436789 1.45225 -1.01252 -22.978 1.71104 -0.454276 -2.96534 1.71104 -0.454289 88.8687 -33.1343 -107.752 38.1556 12.8282 13.0962 -5.67106 -47.0249 -5.68318 -19.2488 3.73421 -27.753 -86.8442 -54.334 84.133 -18.8869 11.5174 -8.30463 -129.057 4.29662 -88.2143 -26.2136 -3.03065 9.49595 14.1463 33.6914 6.89024 -1.70685 31.0937 4.72116 
-84.9468 98.7543 -73.5378 94.2444 -57.0599 90.979 -174.283 5.42149 94.1363 -21.6413 42.5406 1.46797 70.6035 8.45251 2.37138 29.1884 0.555371 -0.744835 165.109 -0.352915 82.7202 -26.0486 11.9795 4.23621 73.0863 -8.79306 0.784139 32.1685 -1.95601 2.05379 0.6815 7.81118 -90.1424 11.2544 1.29009 -0.411169 -0.416022 1.27072 -0.467565 -22.9563 1.354 -0.00437461 -2.94366 1.354 -0.00437269 88.933 -33.1622 -107.62 39.4177 12.9059 15.1524 -5.51097 -44.9598 -5.57927 -17.0636 3.13003 -26.688 -86.9203 -55.182 84.1501 -20.9601 9.02219 -16.8107 -125.588 -4.21719 -94.4391 -21.9181 -2.10609 7.29297 13.9632 27.2323 4.34059 -1.52079 25.3833 2.31982 
-87.3228 98.3457 -71.7264 93.4485 -58.1327 89.5156 -174.331 4.58573 94.896 -20.1831 40.8525 2.20576 71.0984 8.48888 1.02427 31.2743 0.701331 1.13519 165.243 -0.367324 83.4839 -25.0435 12.5062 4.6527 72.7348 -8.70263 0.830258 31.966 -1.78356 1.68605 0.590048 7.78166 -89.9275 11.311 1.20799 0.0244325 -0.359397 1.20791 -0.0287647 -22.8987 1.14479 0.386405 -2.88607 1.14479 0.386412 88.9665 -33.4664 -107.443 40.2532 12.8663 15.89 -5.61694 -46.3421 -5.64754 -16.5911 3.02261 -26.5818 -86.8491 -55.8711 84.352 -23.4715 5.98188 -26.3789 -126.463 -16.5185 -103.561 -16.7519 -1.08187 3.59425 12.7478 16.9693 1.89493 -1.25366 16.027 -1.89226 
-90.2206 97.7754 -69.5376 93.8615 -61.4051 90.0172 -173.38 2.52713 96.9542 -18.0545 38.2516 2.70744 72.2318 9.102 0.369476 32.4828 0.316343 3.3564 166.167 -1.19853 85.57 -25.5233 11.2711 4.80603 76.3569 -11.2269 0.158321 32.4273 -1.89517 1.39499 0.540251 7.84427 -89.8446 11.1847 1.14748 0.196675 -0.485717 1.15502 0.145974 -23.0242 1.03532 0.532479 -3.01157 1.03532 0.532488 88.7581 -33.718 -107.74 41.092 12.6338 15.591 -5.51986 -45.0787 -5.58493 -17.0541 3.07059 -26.3343 -86.7356 -56.2201 84.5622 -25.3357 1.28364 -32.5128 -124.754 -31.1137 -111.94 -13.8119 -0.517386 -0.29032 10.4164 7.0814 0.0437696 -0.319908 6.84603 -5.36873 
-93.542 96.8767 -67.1303 92.3948 -67.4453 89.5286 -172.185 1.51031 99.4437 -18.0732 31.6738 2.95017 74.2392 10.2374 -1.31996 33.338 -1.05081 7.41382 168.383 -0.697303 88.3298 -26.6803 6.93161 4.28379 79.0503 -12.9266 -0.738392 30.3448 -1.73736 3.89822 0.597377 7.88979 -89.8809 11.0941 1.24441 0.11659 -0.576306 1.24833 0.0616964 -23.1157 1.15183 0.485244 -3.10302 1.15181 0.485236 88.9657 -33.5986 -107.396 41.45 12.1238 13.3739 -5.48407 -44.5993 -5.56224 -16.7676 3.0762 -26.7266 -86.9883 -56.6839 84.2738 -24.6151 -5.09601 -25.1908 -117.874 -35.3106 -109.41 -4.36869 -0.13183 -1.73168 9.10728 -0.123545 0.425998 0.993427 -0.400583 -9.90562 
-96.9593 95.9468 -64.9775 86.0817 -72.3101 84.6461 -173.124 6.91035 100.696 -28.77 19.8576 3.536 75.5021 11.5479 -0.816872 33.3724 -1.50727 8.45016 171.978 0.727357 92.4213 -27.5255 6.78236 3.29922 81.7325 -13.7464 0.541907 29.2058 -1.20665 3.56222 0.4076 7.87535 -89.963 11.1234 0.828538 -0.00681479 -0.547252 0.827443 -0.0432875 -23.0844 0.792289 0.242532 -3.07175 0.792276 0.242515 88.1553 -34.0258 -108.744 41.7266 11.4065 10.1741 -5.49197 -44.7077 -5.56717 -17.2199 2.94436 -25.2545 -86.5884 -56.8523 84.8561 -23.2352 -10.0983 -9.99748 -113.602 -33.2156 -105.872 -0.0496116 -0.066095 -3.16386 10.2943 -3.92873 0.602276 1.91405 -4.25449 -11.2449 
-99.8259 96.0509 -62.4969 76.4858 -77.1731 74.9846 -174.655 15.9832 97.531 -46.0961 3.28287 3.60271 75.5069 11.3522 3.57048 20.0689 -5.1499 1.13735 174.688 -1.04074 94.7286 -22.3424 4.83119 1.59005 80.7562 -14.6354 -1.31047 28.0609 -1.53768 6.19481 0.466445 8.03222 -89.9954 10.81 0.930929 -0.0773619 -0.860593 0.926619 -0.118266 -23.3984 0.911134 0.206027 -3.38574 0.911134 0.20602 87.1319 -34.2381 -110.55 42.3866 10.7301 7.8104 -5.68113 -47.1489 -5.69055 -20.8992 3.25878 -23.3569 -86.1836 -58.9108 85.6891 -22.2968 -12.9307 0.888343 -111.705 -37.0192 -105.994 -0.31734 -0.0579407 -2.79837 13.8161 -6.19047 1.67139 2.06659 -6.74234 -11.7232 
-101.936 96.2048 -59.222 59.0717 -78.9522 56.3932 -175.345 25.8135 91.446 -58.8285 0.560365 2.53203 77.4017 13.28 8.03494 14.9776 -5.40228 -2.83425 175.518 -4.13647 94.5503 -14.3852 1.45251 0.914705 78.9552 -14.5433 -1.49908 26.9276 -1.26232 6.62816 0.740059 8.06918 -89.9497 10.7366 1.49694 -0.038165 -0.933543 1.49381 -0.104039 -23.4751 1.43918 0.413583 -3.46243 1.43919 0.413575 86.971 -34.6487 -110.676 44.1374 9.74083 5.75128 -5.42221 -43.7357 -5.51803 -23.8502 3.75889 -23.3375 -86.171 -59.4271 85.7712 -24.3704 -11.6797 7.41112 -115.044 -44.0873 -110.63 -2.52561 -0.0997843 -4.7801 15.8896 -8.8502 0.912814 2.5692 -9.10897 -10.0446 
-103.792 95.3939 -55.3893 30.1886 -79.8668 26.1243 -172.951 34.8313 84.8529 -64.7987 5.34343 0.0718389 80.4324 14.376 4.1488 20.2335 -3.71681 -1.10322 175.937 -5.64596 93.7333 -10.4461 -1.45836 -0.0664782 80.0776 -14.7168 0.775437 25.7466 -0.671852 6.09878 1.26985 8.07175 -89.846 10.732 2.59978 0.0669671 -0.936312 2.6002 -0.0476141 -23.4906 2.45938 0.845694 -3.47796 2.45939 0.845681 86.8826 -34.4257 -110.931 44.982 8.58149 2.16833 -4.78364 -33.5669 -5.17841 -23.5636 5.21423 -30.5256 -86.1652 -60.0314 85.8546 -26.1357 -11.1632 17.2676 -123.311 -43.1511 -116.735 -8.15 0.0367826 -6.67395 18.6225 -10.5562 0.85902 1.53195 -10.6353 -9.89698 
-105.455 93.2761 -51.5683 1.75537 -79.0947 -2.93288 -168.635 43.5771 77.8676 -65.9967 9.27576 -2.63114 82.7389 15.9909 3.56501 23.2062 -2.35555 -0.834366 175.933 -3.84623 93.2813 -15.8923 -4.08105 -0.54628 84.8907 -18.0067 1.04622 27.5641 -1.48664 6.6204 1.66735 8.32753 -89.8482 10.222 3.39153 0.0123135 -1.44455 3.38878 -0.137157 -24.0129 3.23087 1.03211 -4.00022 3.23087 1.03211 85.6304 -35.2894 -112.837 38.9548 9.10017 -5.93445 -5.04891 -38.1281 -5.30932 -22.525 6.87296 -39.6967 -85.1824 -59.7417 87.1499 -28.672 -9.63728 29.6707 -135.977 -31.8945 -120.826 -12.4702 0.299702 -8.78459 22.6961 -10.9855 1.1878 2.0992 -11.1531 -9.12496 
